<svg width="512" height="239" viewBox="0 0 512 239" fill="none" xmlns="http://www.w3.org/2000/svg">
<path d="M161.707 8.53302L471.467 8.53302L352 114.347C349.44 117.76 349.44 122.027 352 124.587L471.467 230.4L161.707 230.4L44.8 124.587C42.24 121.174 42.24 116.907 44.8 114.347L161.707 8.53302Z" fill="#00DA6C"/>
<path d="M10.667 124.587L127.573 230.4H161.706L44.8 124.587C42.24 121.174 42.24 116.907 44.8 114.347L161.707 8.53403L127.574 8.53403L10.667 114.347C8.10701 116.907 8.10701 122.027 10.667 124.587Z" fill="white"/>
<path d="M352 124.587L471.467 230.4H503.894L384.427 124.587C381.867 121.174 381.867 116.907 384.427 114.347L503.894 8.53403L471.467 8.53403L352 114.347C349.44 116.907 349.44 122.027 352 124.587Z" fill="#00AD55"/>
<path d="M503.893 238.933H410.026C404.906 238.933 401.493 235.52 401.493 230.4C401.493 225.28 404.906 221.867 410.026 221.867H481.706L379.306 131.414L378.453 130.561C373.333 124.588 373.333 116.054 378.453 110.081C378.453 109.228 379.306 109.228 379.306 109.228L481.706 17.068L130.986 17.068L17.493 119.468L130.986 221.868H341.76C346.88 221.868 350.293 225.281 350.293 230.401C350.293 235.521 346.88 238.934 341.76 238.934H127.573C125.866 238.934 123.306 238.081 121.6 236.374L4.69302 131.413L3.84002 130.56C-1.27998 124.587 -1.27998 116.053 3.84002 110.08L4.69302 109.227L121.6 2.56001C123.307 0.853013 125.867 1.52588e-05 127.573 1.52588e-05L503.893 1.52588e-05C507.306 1.52588e-05 510.72 2.56003 511.573 5.12003C512.426 8.53303 511.573 11.947 509.013 14.507L391.253 119.467L509.013 224.427C511.573 226.987 512.426 230.4 511.573 233.814C510.72 236.373 507.307 238.933 503.893 238.933Z" fill="black"/>
<path d="M367.36 230.4C367.36 235.52 370.773 238.933 375.893 238.933C381.013 238.933 384.426 235.52 384.426 230.4C384.426 225.28 381.013 221.867 375.893 221.867C370.773 221.867 367.36 225.28 367.36 230.4Z" fill="black"/>
</svg>
