<svg width="512" height="239" viewBox="0 0 512 239" fill="none" xmlns="http://www.w3.org/2000/svg">
<path d="M350.186 230.401L40.4258 230.401L159.893 124.587C162.453 121.174 162.453 116.907 159.893 114.347L40.4259 8.534L350.186 8.53403L467.093 114.347C469.653 117.76 469.653 122.027 467.093 124.587L350.186 230.401Z" fill="#00DA6C"/>
<path d="M501.226 114.347L384.32 8.53403L350.187 8.53403L467.093 114.347C469.653 117.76 469.653 122.027 467.093 124.587L350.186 230.4L384.319 230.4L501.226 124.587C503.786 122.027 503.786 116.907 501.226 114.347Z" fill="white"/>
<path d="M159.893 114.347L40.4259 8.534L7.99887 8.534L127.466 114.347C130.026 117.76 130.026 122.027 127.466 124.587L7.99886 230.4L40.4259 230.4L159.893 124.587C162.453 122.027 162.453 116.907 159.893 114.347Z" fill="#00AD55"/>
<path d="M7.99987 0.00100785L101.867 0.00101606C106.987 0.0010165 110.4 3.41401 110.4 8.53401C110.4 13.654 106.987 17.067 101.867 17.067L30.1869 17.067L132.587 107.52L133.44 108.373C138.56 114.346 138.56 122.88 133.44 128.853C133.44 129.706 132.587 129.706 132.587 129.706L30.1869 221.866L380.907 221.866L494.4 119.466L380.907 17.066L170.133 17.066C165.013 17.066 161.6 13.653 161.6 8.533C161.6 3.413 165.013 1.44975e-05 170.133 1.49451e-05L384.32 3.36699e-05C386.027 3.38191e-05 388.587 0.853032 390.293 2.56003L507.2 107.521L508.053 108.374C513.173 114.347 513.173 122.881 508.053 128.854L507.2 129.707L390.293 236.374C388.586 238.081 386.026 238.934 384.32 238.934L7.99985 238.934C4.58685 238.934 1.17285 236.374 0.319855 233.814C-0.533145 230.401 0.319853 226.987 2.87985 224.427L120.64 119.467L2.87987 14.507C0.319872 11.947 -0.533125 8.534 0.319875 5.12C1.17288 2.561 4.58587 0.00100755 7.99987 0.00100785Z" fill="black"/>
<path d="M144.533 8.53401C144.533 3.41401 141.12 0.00102204 136 0.00102159C130.88 0.00102115 127.467 3.41401 127.467 8.53401C127.467 13.654 130.88 17.067 136 17.067C141.12 17.067 144.533 13.654 144.533 8.53401Z" fill="black"/>
</svg>
